<?xml version="1.0" encoding="UTF-8" standalone="no"?>
<!DOCTYPE svg PUBLIC "-//W3C//DTD SVG 1.0//EN" "http://www.w3.org/TR/2001/PR-SVG-20010719/DTD/svg10.dtd">
<svg width="24cm" height="14cm" viewBox="199 9 472 279" xmlns="http://www.w3.org/2000/svg" xmlns:xlink="http://www.w3.org/1999/xlink">
  <rect style="fill: none; fill-opacity:0; stroke-width: 1.6; stroke-linejoin: round; stroke: #000000" x="200.014" y="200.952" width="50.8278" height="84.8528" rx="2.35099e-37" ry="2.35099e-37"/>
  <rect style="fill: none; fill-opacity:0; stroke-width: 1.6; stroke-linejoin: round; stroke: #000000" x="259.964" y="200.726" width="50.8278" height="84.8528" rx="2.35099e-37" ry="2.35099e-37"/>
  <rect style="fill: none; fill-opacity:0; stroke-width: 1.6; stroke-linejoin: round; stroke: #000000" x="318.404" y="200.408" width="50.8278" height="84.8528" rx="2.35099e-37" ry="2.35099e-37"/>
  <rect style="fill: none; fill-opacity:0; stroke-width: 1.6; stroke-linejoin: round; stroke: #000000" x="379.498" y="200.62" width="50.8278" height="84.8528" rx="2.35099e-37" ry="2.35099e-37"/>
  <rect style="fill: none; fill-opacity:0; stroke-width: 1.6; stroke-linejoin: round; stroke: #000000" x="440.594" y="200.834" width="50.8278" height="84.8528" rx="2.35099e-37" ry="2.35099e-37"/>
  <rect style="fill: none; fill-opacity:0; stroke-width: 1.6; stroke-linejoin: round; stroke: #000000" x="500.804" y="200.692" width="50.8278" height="84.8528" rx="2.35099e-37" ry="2.35099e-37"/>
  <rect style="fill: none; fill-opacity:0; stroke-width: 1.6; stroke-linejoin: round; stroke: #000000" x="560.306" y="200.728" width="50.8278" height="84.8528" rx="2.35099e-37" ry="2.35099e-37"/>
  <rect style="fill: none; fill-opacity:0; stroke-width: 1.6; stroke-linejoin: round; stroke: #000000" x="618.926" y="200.408" width="50.8278" height="84.8528" rx="2.35099e-37" ry="2.35099e-37"/>
  <g>
    <polygon style="fill: #7f7f7f" points="203.186,221.104 213.262,240.196 238.494,236.584 246.85,221.546 237.994,203.584 214.324,207.846 "/>
    <polygon style="fill: none; fill-opacity:0; stroke-width: 1.6; stroke: #000000" points="203.186,221.104 213.262,240.196 238.494,236.584 246.85,221.546 237.994,203.584 214.324,207.846 "/>
  </g>
  <rect style="fill: none; fill-opacity:0; stroke-width: 2; stroke-linejoin: round; stroke: #000000" x="387.59" y="10.4509" width="95.2971" height="162.481" rx="2.35099e-37" ry="2.35099e-37"/>
  <g>
    <polygon style="fill: #7f7f7f" points="406.992,22.1454 427.492,18.8954 422.742,29.1454 400.648,32.3088 "/>
    <polygon style="fill: none; fill-opacity:0; stroke-width: 2; stroke: #7f7f7f" points="406.992,22.1454 427.492,18.8954 422.742,29.1454 400.648,32.3088 "/>
  </g>
  <g>
    <polygon style="fill: #ffff00" points="460.992,44.6454 467.742,33.3954 476.742,50.1454 470.652,62.184 "/>
    <polygon style="fill: none; fill-opacity:0; stroke-width: 2; stroke: #ffff00" points="460.992,44.6454 467.742,33.3954 476.742,50.1454 470.652,62.184 "/>
  </g>
  <g>
    <polygon style="fill: #00ffff" points="423.628,29.657 428.93,18.6969 457.992,12.6454 467.742,31.3954 460.492,42.6454 450.992,25.1454 "/>
    <polygon style="fill: none; fill-opacity:0; stroke-width: 2; stroke: #00ffff" points="423.628,29.657 428.93,18.6969 457.992,12.6454 467.742,31.3954 460.492,42.6454 450.992,25.1454 "/>
  </g>
  <g>
    <polygon style="fill: #00ff00" points="401.492,66.6454 426.742,63.3954 436.888,82.1598 411.992,85.8954 "/>
    <polygon style="fill: none; fill-opacity:0; stroke-width: 2; stroke: #00ff00" points="401.492,66.6454 426.742,63.3954 436.888,82.1598 411.992,85.8954 "/>
  </g>
  <g>
    <polygon style="fill: #ff00ff" points="427.242,62.8954 451.992,56.8954 460.992,45.3954 470.652,62.891 463.752,77.9646 437.252,81.9646 "/>
    <polygon style="fill: none; fill-opacity:0; stroke-width: 1.6; stroke: #ff00ff" points="427.242,62.8954 451.992,56.8954 460.992,45.3954 470.652,62.891 463.752,77.9646 437.252,81.9646 "/>
  </g>
  <g>
    <polygon style="fill: #0000ff" points="390.242,46.3954 399.588,33.1926 422.992,29.6454 414.242,42.3954 426.242,62.3954 401.002,66.073 "/>
    <polygon style="fill: none; fill-opacity:0; stroke-width: 1.6; stroke: #0000ff" points="390.242,46.3954 399.588,33.1926 422.992,29.6454 414.242,42.3954 426.242,62.3954 401.002,66.073 "/>
  </g>
  <g>
    <polygon style="fill: #ff0000" points="415.992,42.6454 422.922,30.2758 451.204,25.768 460.242,43.8954 452.742,58.3954 426.81,61.8304 "/>
    <polygon style="fill: none; fill-opacity:0; stroke-width: 1.6; stroke: #ff0000" points="415.992,42.6454 422.922,30.2758 451.204,25.768 460.242,43.8954 452.742,58.3954 426.81,61.8304 "/>
  </g>
  <image x="386.73" y="89.929" width="96.3522" height="83" xlink:href="file:///home/pierre/Documents/Dropbox/own_papers/siggraph_poster11/fig/hlod/armadillo.png"/>
  <image x="200.658" y="242.85" width="50.2297" height="43.269" xlink:href="file:///home/pierre/Documents/Dropbox/own_papers/siggraph_poster11/fig/hlod/arma0.png"/>
  <polyline style="fill: none; fill-opacity:0; stroke-width: 2; stroke: #000000" points="390.242,46.3954 443.492,38.1454 457.992,12.6454 406.992,22.1454 390.242,46.3954 411.992,85.8954 463.752,77.9646 442.492,37.6454 "/>
  <polyline style="fill: none; fill-opacity:0; stroke-width: 2; stroke: #000000" points="463.752,77.9646 476.742,50.1454 457.992,12.6454 "/>
  <line style="fill: none; fill-opacity:0; stroke-width: 1.6; stroke: #000000" x1="415.992" y1="42.6454" x2="437.252" y2="81.9646"/>
  <line style="fill: none; fill-opacity:0; stroke-width: 1.6; stroke: #000000" x1="428.93" y1="18.6969" x2="415.992" y2="42.6454"/>
  <line style="fill: none; fill-opacity:0; stroke-width: 1.6; stroke: #000000" x1="450.992" y1="25.1454" x2="470.652" y2="62.891"/>
  <line style="fill: none; fill-opacity:0; stroke-width: 1.6; stroke: #000000" x1="399.588" y1="33.1926" x2="450.992" y2="25.1454"/>
  <line style="fill: none; fill-opacity:0; stroke-width: 1.6; stroke: #000000" x1="401.002" y1="66.073" x2="452.742" y2="58.3954"/>
  <line style="fill: none; fill-opacity:0; stroke-width: 1.6; stroke: #000000" x1="467.742" y1="31.3954" x2="452.742" y2="58.3954"/>
  <line style="fill: none; fill-opacity:0; stroke-width: 1.6; stroke: #000000" x1="203.186" y1="221.104" x2="228.112" y2="217.126"/>
  <line style="fill: none; fill-opacity:0; stroke-width: 1.6; stroke: #000000" x1="238.494" y1="236.584" x2="228.112" y2="216.596"/>
  <line style="fill: none; fill-opacity:0; stroke-width: 1.6; stroke: #000000" x1="237.994" y1="203.584" x2="228.466" y2="216.95"/>
  <g>
    <polygon style="fill: #00ffff" points="263.136,220.878 273.212,239.97 298.444,236.358 306.8,221.32 297.944,203.358 274.274,207.62 "/>
    <polygon style="fill: none; fill-opacity:0; stroke-width: 1.6; stroke: #000000" points="263.136,220.878 273.212,239.97 298.444,236.358 306.8,221.32 297.944,203.358 274.274,207.62 "/>
  </g>
  <image x="260.608" y="242.624" width="50.8369" height="43.7921" xlink:href="file:///home/pierre/Documents/Dropbox/own_papers/siggraph_poster11/fig/hlod/arma1.png"/>
  <line style="fill: none; fill-opacity:0; stroke-width: 1.6; stroke: #000000" x1="263.136" y1="220.878" x2="288.062" y2="216.902"/>
  <line style="fill: none; fill-opacity:0; stroke-width: 1.6; stroke: #000000" x1="298.444" y1="236.358" x2="288.062" y2="216.372"/>
  <line style="fill: none; fill-opacity:0; stroke-width: 1.6; stroke: #000000" x1="297.944" y1="203.358" x2="288.416" y2="216.724"/>
  <g>
    <polygon style="fill: #bb7a16" points="321.578,220.56 331.654,239.652 356.886,236.04 365.242,221.002 356.386,203.04 332.714,207.302 "/>
    <polygon style="fill: none; fill-opacity:0; stroke-width: 1.6; stroke: #000000" points="321.578,220.56 331.654,239.652 356.886,236.04 365.242,221.002 356.386,203.04 332.714,207.302 "/>
  </g>
  <image x="319.048" y="242.306" width="50.3642" height="43.3849" xlink:href="file:///home/pierre/Documents/Dropbox/own_papers/siggraph_poster11/fig/hlod/arma2.png"/>
  <line style="fill: none; fill-opacity:0; stroke-width: 1.6; stroke: #000000" x1="321.578" y1="220.56" x2="346.502" y2="216.584"/>
  <line style="fill: none; fill-opacity:0; stroke-width: 1.6; stroke: #000000" x1="356.886" y1="236.04" x2="346.502" y2="216.052"/>
  <line style="fill: none; fill-opacity:0; stroke-width: 1.6; stroke: #000000" x1="356.386" y1="203.04" x2="346.856" y2="216.406"/>
  <g>
    <polygon style="fill: #ffff00" points="382.672,220.772 392.748,239.864 417.98,236.252 426.336,221.214 417.48,203.252 393.808,207.514 "/>
    <polygon style="fill: none; fill-opacity:0; stroke-width: 1.6; stroke: #000000" points="382.672,220.772 392.748,239.864 417.98,236.252 426.336,221.214 417.48,203.252 393.808,207.514 "/>
  </g>
  <image x="380.144" y="242.516" width="50.7702" height="43.7346" xlink:href="file:///home/pierre/Documents/Dropbox/own_papers/siggraph_poster11/fig/hlod/arma3.png"/>
  <line style="fill: none; fill-opacity:0; stroke-width: 1.6; stroke: #000000" x1="382.672" y1="220.772" x2="407.596" y2="216.794"/>
  <line style="fill: none; fill-opacity:0; stroke-width: 1.6; stroke: #000000" x1="417.98" y1="236.252" x2="407.596" y2="216.264"/>
  <line style="fill: none; fill-opacity:0; stroke-width: 1.6; stroke: #000000" x1="417.48" y1="203.252" x2="407.95" y2="216.618"/>
  <g>
    <polygon style="fill: #0000ff" points="443.766,220.986 453.842,240.078 479.074,236.464 487.43,221.428 478.574,203.464 454.904,207.728 "/>
    <polygon style="fill: none; fill-opacity:0; stroke-width: 1.6; stroke: #000000" points="443.766,220.986 453.842,240.078 479.074,236.464 487.43,221.428 478.574,203.464 454.904,207.728 "/>
  </g>
  <image x="441.238" y="242.73" width="50.3832" height="43.4013" xlink:href="file:///home/pierre/Documents/Dropbox/own_papers/siggraph_poster11/fig/hlod/arma4.png"/>
  <line style="fill: none; fill-opacity:0; stroke-width: 1.6; stroke: #000000" x1="443.766" y1="220.986" x2="468.692" y2="217.008"/>
  <line style="fill: none; fill-opacity:0; stroke-width: 1.6; stroke: #000000" x1="479.074" y1="236.464" x2="468.692" y2="216.478"/>
  <line style="fill: none; fill-opacity:0; stroke-width: 1.6; stroke: #000000" x1="478.574" y1="203.464" x2="469.046" y2="216.832"/>
  <g>
    <polygon style="fill: #ff0000" points="503.978,220.844 514.054,239.936 539.286,236.324 547.642,221.286 538.786,203.324 515.114,207.586 "/>
    <polygon style="fill: none; fill-opacity:0; stroke-width: 1.6; stroke: #000000" points="503.978,220.844 514.054,239.936 539.286,236.324 547.642,221.286 538.786,203.324 515.114,207.586 "/>
  </g>
  <image x="501.448" y="242.59" width="51.2626" height="44.1588" xlink:href="file:///home/pierre/Documents/Dropbox/own_papers/siggraph_poster11/fig/hlod/arma5.png"/>
  <line style="fill: none; fill-opacity:0; stroke-width: 1.6; stroke: #000000" x1="503.978" y1="220.844" x2="528.902" y2="216.866"/>
  <line style="fill: none; fill-opacity:0; stroke-width: 1.6; stroke: #000000" x1="539.286" y1="236.324" x2="528.902" y2="216.336"/>
  <line style="fill: none; fill-opacity:0; stroke-width: 1.6; stroke: #000000" x1="538.786" y1="203.324" x2="529.256" y2="216.69"/>
  <g>
    <polygon style="fill: #00ff00" points="563.48,220.88 573.556,239.972 598.788,236.36 607.142,221.322 598.288,203.36 574.616,207.622 "/>
    <polygon style="fill: none; fill-opacity:0; stroke-width: 1.6; stroke: #000000" points="563.48,220.88 573.556,239.972 598.788,236.36 607.142,221.322 598.288,203.36 574.616,207.622 "/>
  </g>
  <image x="560.95" y="242.624" width="50.8165" height="43.7745" xlink:href="file:///home/pierre/Documents/Dropbox/own_papers/siggraph_poster11/fig/hlod/arma6.png"/>
  <line style="fill: none; fill-opacity:0; stroke-width: 1.6; stroke: #000000" x1="563.48" y1="220.88" x2="588.404" y2="216.902"/>
  <line style="fill: none; fill-opacity:0; stroke-width: 1.6; stroke: #000000" x1="598.788" y1="236.36" x2="588.404" y2="216.372"/>
  <line style="fill: none; fill-opacity:0; stroke-width: 1.6; stroke: #000000" x1="598.288" y1="203.36" x2="588.758" y2="216.726"/>
  <g>
    <polygon style="fill: #ff00ff" points="622.098,220.56 632.174,239.652 657.406,236.04 665.762,221.002 656.906,203.04 633.236,207.302 "/>
    <polygon style="fill: none; fill-opacity:0; stroke-width: 1.6; stroke: #000000" points="622.098,220.56 632.174,239.652 657.406,236.04 665.762,221.002 656.906,203.04 633.236,207.302 "/>
  </g>
  <image x="619.57" y="242.306" width="50.6318" height="43.6154" xlink:href="file:///home/pierre/Documents/Dropbox/own_papers/siggraph_poster11/fig/hlod/arma7.png"/>
  <line style="fill: none; fill-opacity:0; stroke-width: 1.6; stroke: #000000" x1="622.098" y1="220.56" x2="647.024" y2="216.584"/>
  <line style="fill: none; fill-opacity:0; stroke-width: 1.6; stroke: #000000" x1="657.406" y1="236.04" x2="647.024" y2="216.052"/>
  <line style="fill: none; fill-opacity:0; stroke-width: 1.6; stroke: #000000" x1="656.906" y1="203.04" x2="647.378" y2="216.406"/>
  <g>
    <line style="fill: none; fill-opacity:0; stroke-width: 1.2; stroke: #000000" x1="434.906" y1="172.929" x2="228.088" y2="200.596"/>
    <polyline style="fill: none; fill-opacity:0; stroke-width: 1.2; stroke: #000000" points="236.007,194.492 226.758,200.774 237.332,204.404 "/>
  </g>
  <g>
    <line style="fill: none; fill-opacity:0; stroke-width: 1.2; stroke: #000000" x1="434.906" y1="172.929" x2="288.016" y2="200.236"/>
    <polyline style="fill: none; fill-opacity:0; stroke-width: 1.2; stroke: #000000" points="295.615,193.737 286.697,200.481 297.442,203.569 "/>
  </g>
  <g>
    <line style="fill: none; fill-opacity:0; stroke-width: 1.2; stroke: #000000" x1="434.906" y1="172.929" x2="346.387" y2="199.633"/>
    <polyline style="fill: none; fill-opacity:0; stroke-width: 1.2; stroke: #000000" points="353.232,192.345 345.102,200.021 356.12,201.919 "/>
  </g>
  <g>
    <line style="fill: none; fill-opacity:0; stroke-width: 1.2; stroke: #000000" x1="434.906" y1="172.929" x2="406.884" y2="198.8"/>
    <polyline style="fill: none; fill-opacity:0; stroke-width: 1.2; stroke: #000000" points="409.854,189.253 405.898,199.71 416.637,196.6 "/>
  </g>
  <g>
    <line style="fill: none; fill-opacity:0; stroke-width: 1.2; stroke: #000000" x1="435.238" y1="172.932" x2="464.02" y2="199.032"/>
    <polyline style="fill: none; fill-opacity:0; stroke-width: 1.2; stroke: #000000" points="454.248,196.919 465.014,199.933 460.965,189.511 "/>
  </g>
  <g>
    <line style="fill: none; fill-opacity:0; stroke-width: 1.2; stroke: #000000" x1="435.238" y1="172.932" x2="523.652" y2="199.909"/>
    <polyline style="fill: none; fill-opacity:0; stroke-width: 1.2; stroke: #000000" points="513.911,202.164 524.935,200.3 516.829,192.6 "/>
  </g>
  <g>
    <line style="fill: none; fill-opacity:0; stroke-width: 1.2; stroke: #000000" x1="435.238" y1="172.932" x2="583.081" y2="200.241"/>
    <polyline style="fill: none; fill-opacity:0; stroke-width: 1.2; stroke: #000000" points="573.659,203.585 584.401,200.484 575.475,193.751 "/>
  </g>
  <g>
    <line style="fill: none; fill-opacity:0; stroke-width: 1.2; stroke: #000000" x1="435.238" y1="172.932" x2="641.68" y2="200.058"/>
    <polyline style="fill: none; fill-opacity:0; stroke-width: 1.2; stroke: #000000" points="632.444,203.888 643.01,200.233 633.746,193.973 "/>
  </g>
  <line style="fill: none; fill-opacity:0; stroke-width: 1; stroke: #000000" x1="200.014" y1="243.378" x2="250.842" y2="243.378"/>
  <line style="fill: none; fill-opacity:0; stroke-width: 1; stroke: #000000" x1="259.964" y1="243.152" x2="310.792" y2="243.152"/>
  <line style="fill: none; fill-opacity:0; stroke-width: 1; stroke: #000000" x1="386.73" y1="89.929" x2="483.082" y2="89.929"/>
  <line style="fill: none; fill-opacity:0; stroke-width: 1; stroke: #000000" x1="319.048" y1="242.306" x2="369.414" y2="242.306"/>
  <line style="fill: none; fill-opacity:0; stroke-width: 1; stroke: #000000" x1="380.144" y1="242.516" x2="430.916" y2="242.516"/>
  <line style="fill: none; fill-opacity:0; stroke-width: 1; stroke: #000000" x1="441.238" y1="242.73" x2="491.622" y2="242.73"/>
  <line style="fill: none; fill-opacity:0; stroke-width: 1; stroke: #000000" x1="501.448" y1="242.59" x2="552.71" y2="242.59"/>
  <line style="fill: none; fill-opacity:0; stroke-width: 1; stroke: #000000" x1="560.95" y1="242.624" x2="611.766" y2="242.624"/>
  <line style="fill: none; fill-opacity:0; stroke-width: 1; stroke: #000000" x1="619.57" y1="242.306" x2="670.202" y2="242.306"/>
</svg>
