<?xml version="1.0" encoding="utf-8"?>
<!-- Generator: Adobe Illustrator 15.0.2, SVG Export Plug-In . SVG Version: 6.00 Build 0)  -->
<!DOCTYPE svg PUBLIC "-//W3C//DTD SVG 1.1//EN" "http://www.w3.org/Graphics/SVG/1.1/DTD/svg11.dtd">
<svg version="1.1" id="Layer_1" xmlns="http://www.w3.org/2000/svg" xmlns:xlink="http://www.w3.org/1999/xlink" x="0px" y="0px"
	 width="500px" height="500px" viewBox="0 0 500 500" enable-background="new 0 0 500 500" xml:space="preserve">
<circle fill="#1A1A1A" cx="250.279" cy="250.542" r="242.138"/>
<g>
	<path id="_205218312_1_" fill="#333333" d="M156.633,54.627L156.633,54.627l283.402,169.625
		c-30.871,13.875-61.741,27.75-92.611,41.625c22.293,58.89,14.107,192.9-125.658,198.743
		c83.313-51.612-20.072-133.245-20.072-133.245L95.337,379.173L156.633,54.627L156.633,54.627z"/>
	<path id="_24167944_1_" fill="#818181" d="M162.683,68.09L162.683,68.09l256.187,153.334
		c-27.978,12.574-55.953,25.148-83.931,37.722c12.346,55.221,16.989,193.985-106.512,202.646
		c84.925-52.362-19.481-146.02-19.481-146.02l-101.67,45.693L162.683,68.09L162.683,68.09z"/>
</g>
<defs>
	<filter id="Adobe_OpacityMaskFilter" filterUnits="userSpaceOnUse" x="7.639" y="7.82" width="447.003" height="356.448">
		<feColorMatrix  type="matrix" values="1 0 0 0 0  0 1 0 0 0  0 0 1 0 0  0 0 0 1 0"/>
	</filter>
</defs>
<mask maskUnits="userSpaceOnUse" x="7.639" y="7.82" width="447.003" height="356.448" id="id0_1_">
	
		<linearGradient id="SVGID_1_" gradientUnits="userSpaceOnUse" x1="47.1296" y1="152.7686" x2="-19.9772" y2="18.5561" gradientTransform="matrix(2.8346 0 0 2.8346 192.6666 -56.7607)">
		<stop  offset="0" style="stop-color:#FFFFFF"/>
		<stop  offset="1" style="stop-color:#FFFFFF;stop-opacity:0"/>
	</linearGradient>
	<rect x="7.214" y="7.395" fill="url(#SVGID_1_)" filter="url(#Adobe_OpacityMaskFilter)" width="447.856" height="357.3"/>
</mask>
<path mask="url(#id0_1_)" fill="#FFFFFF" d="M454.642,120.823C411.75,52.918,336.029,7.82,249.776,7.82
	C116.048,7.82,7.639,116.229,7.639,249.957c0,31.139,5.877,60.902,16.583,88.247c38.347,16.765,80.704,26.063,125.233,26.063
	C298.401,364.268,423.04,260.208,454.642,120.823L454.642,120.823z"/>
</svg>
