<?xml version="1.0" encoding="UTF-8"?>
<!DOCTYPE svg PUBLIC "-//W3C//DTD SVG 1.1//EN" "http://www.w3.org/Graphics/SVG/1.1/DTD/svg11.dtd">
<!-- Creator: CorelDRAW X5 -->
<svg xmlns="http://www.w3.org/2000/svg" xml:space="preserve" width="215.9mm" height="279.4mm" shape-rendering="geometricPrecision" text-rendering="geometricPrecision" image-rendering="optimizeQuality" fill-rule="evenodd" clip-rule="evenodd"
viewBox="0 0 215.9 279.4"
 xmlns:xlink="http://www.w3.org/1999/xlink"
 version="1.1"
 enable-background="new 0 0 500 500">
 <g id="Capa_x0020_1">
  <metadata id="CorelCorpID_0Corel-Layer"/>
  <circle fill="#1A1A1A" cx="108.024" cy="139.843" r="64.0657"/>
  <path id="_205218312" fill="#333333" d="M87.5152 86.6518l0 0 79.4941 47.5798c-8.6591,3.8919 -17.3182,7.7839 -25.9773,11.6758 6.2532,16.5187 3.9571,54.1088 -35.2472,55.7474 23.3697,-14.4773 -5.6304,-37.3752 -5.6304,-37.3752l-29.8326 13.4075 17.1934 -91.0353z"/>
  <path id="_24167944" fill="#818181" d="M89.2122 90.428l0 0 71.8603 43.0104c-7.8475,3.5271 -15.6949,7.0541 -23.5424,10.5812 3.463,15.4895 4.7657,54.4128 -29.8767,56.8417 23.8217,-14.6874 -5.4645,-40.9583 -5.4645,-40.9583l-28.5186 12.8172 15.5419 -82.2922z"/>
 </g>
</svg>
