<?xml version="1.0" encoding="UTF-8" standalone="no"?>
<svg width="260.096mm" height="121.666mm"
 viewBox="0 0 1024 479"
 xmlns="http://www.w3.org/2000/svg" xmlns:xlink="http://www.w3.org/1999/xlink"  version="1.2" baseProfile="tiny">
<title>Qt Svg Document</title>
<desc>Generated with Qt</desc>
<defs>
</defs>
<g fill="none" stroke="black" stroke-width="1" fill-rule="evenodd" stroke-linecap="square" stroke-linejoin="bevel" >

<g fill="none" stroke="#000000" stroke-opacity="1" stroke-width="1" stroke-linecap="square" stroke-linejoin="bevel" transform="matrix(1,0,0,1,0,0)"
font-family="Ubuntu" font-size="12.5" font-weight="400" font-style="normal" 
>
</g>

<g fill="none" stroke="#000000" stroke-opacity="1" stroke-width="1" stroke-linecap="square" stroke-linejoin="bevel" transform="matrix(1,0,0,1,0,0)"
font-family="Ubuntu" font-size="12.5" font-weight="400" font-style="normal" 
>
</g>

<g fill="#ffffff" fill-opacity="1" stroke="none" transform="matrix(1,0,0,1,0,0)"
font-family="Ubuntu" font-size="12.5" font-weight="400" font-style="normal" 
>
<path vector-effect="non-scaling-stroke" fill-rule="evenodd" d="M-1,-1 L1025,-1 L1025,480 L-1,480 L-1,-1"/>
</g>

<g fill="none" stroke="#000000" stroke-opacity="1" stroke-width="1" stroke-linecap="square" stroke-linejoin="bevel" transform="matrix(1,0,0,1,0,0)"
font-family="Ubuntu" font-size="12.5" font-weight="400" font-style="normal" 
>
</g>

<g fill="#ffffff" fill-opacity="1" stroke="#000000" stroke-opacity="1" stroke-width="1" stroke-linecap="square" stroke-linejoin="bevel" transform="matrix(1,0,0,1,686.156,318.406)"
font-family="Ubuntu" font-size="12.5" font-weight="400" font-style="normal" 
>
</g>

<g fill="#ffffff" fill-opacity="1" stroke="#000000" stroke-opacity="1" stroke-width="1" stroke-linecap="square" stroke-linejoin="bevel" transform="matrix(0,-1,1,0,686.156,318.406)"
font-family="Ubuntu" font-size="18.9557" font-weight="400" font-style="normal" 
>
</g>

<g fill="#ffffff" fill-opacity="1" stroke="#000000" stroke-opacity="1" stroke-width="1" stroke-linecap="square" stroke-linejoin="bevel" transform="matrix(1,0,0,1,686.156,318.406)"
font-family="Ubuntu" font-size="12.5" font-weight="400" font-style="normal" 
>
</g>

<g fill="#ffffff" fill-opacity="1" stroke="#000000" stroke-opacity="1" stroke-width="1" stroke-linecap="square" stroke-linejoin="bevel" transform="matrix(1,0,0,1,686.156,318.406)"
font-family="Ubuntu" font-size="12.5" font-weight="400" font-style="normal" 
>
</g>

<g fill="#ffffff" fill-opacity="1" stroke="#000000" stroke-opacity="1" stroke-width="1" stroke-linecap="square" stroke-linejoin="bevel" transform="matrix(1,0,0,1,686.156,318.406)"
font-family="Ubuntu" font-size="12.5" font-weight="400" font-style="normal" 
>
</g>

<g fill="#ffffff" fill-opacity="1" stroke="#000000" stroke-opacity="1" stroke-width="1" stroke-linecap="square" stroke-linejoin="bevel" transform="matrix(1,0,0,1,686.156,318.406)"
font-family="Ubuntu" font-size="18.9557" font-weight="400" font-style="normal" 
>
</g>

<g fill="#ffffff" fill-opacity="1" stroke="#000000" stroke-opacity="1" stroke-width="1" stroke-linecap="square" stroke-linejoin="bevel" transform="matrix(1,0,0,1,686.156,318.406)"
font-family="Ubuntu" font-size="12.5" font-weight="400" font-style="normal" 
>
</g>

<g fill="#ffffff" fill-opacity="1" stroke="#000000" stroke-opacity="1" stroke-width="1" stroke-linecap="square" stroke-linejoin="bevel" transform="matrix(1,0,0,1,686.156,318.406)"
font-family="Ubuntu" font-size="18.9557" font-weight="400" font-style="normal" 
>
</g>

<g fill="#ffffff" fill-opacity="1" stroke="#000000" stroke-opacity="1" stroke-width="1" stroke-linecap="square" stroke-linejoin="bevel" transform="matrix(1,0,0,1,686.156,318.406)"
font-family="Ubuntu" font-size="12.5" font-weight="400" font-style="normal" 
>
</g>

<g fill="#ffffff" fill-opacity="1" stroke="#000000" stroke-opacity="1" stroke-width="1" stroke-linecap="square" stroke-linejoin="bevel" transform="matrix(1,0,0,1,686.156,318.406)"
font-family="Ubuntu" font-size="18.9557" font-weight="400" font-style="normal" 
>
</g>

<g fill="#ffffff" fill-opacity="1" stroke="#000000" stroke-opacity="1" stroke-width="1" stroke-linecap="square" stroke-linejoin="bevel" transform="matrix(1,0,0,1,686.156,318.406)"
font-family="Ubuntu" font-size="12.5" font-weight="400" font-style="normal" 
>
</g>

<g fill="#ffffff" fill-opacity="1" stroke="none" transform="matrix(1,0,0,1,686.156,318.406)"
font-family="Ubuntu" font-size="12.5" font-weight="400" font-style="normal" 
>
<path vector-effect="non-scaling-stroke" fill-rule="evenodd" d="M-668.725,-310.752 L332.894,-310.752 L332.894,153.434 L-668.725,153.434 L-668.725,-310.752"/>
</g>

<g fill="#ffffff" fill-opacity="1" stroke="#000000" stroke-opacity="1" stroke-width="1" stroke-linecap="square" stroke-linejoin="bevel" transform="matrix(1,0,0,1,686.156,318.406)"
font-family="Ubuntu" font-size="12.5" font-weight="400" font-style="normal" 
>
</g>

<g fill="#ffffff" fill-opacity="1" stroke="#000000" stroke-opacity="1" stroke-width="1" stroke-linecap="square" stroke-linejoin="bevel" transform="matrix(1,0,0,1,686.156,318.406)"
font-family="Ubuntu" font-size="18.9557" font-weight="400" font-style="normal" 
>
</g>

<g fill="#ffffff" fill-opacity="1" stroke="#000000" stroke-opacity="1" stroke-width="1" stroke-linecap="square" stroke-linejoin="bevel" transform="matrix(0,-1,1,0,17.4305,308.497)"
font-family="Ubuntu" font-size="18.9557" font-weight="400" font-style="normal" 
>
</g>

<g fill="#ffffff" fill-opacity="1" stroke="#000000" stroke-opacity="1" stroke-width="1" stroke-linecap="square" stroke-linejoin="bevel" transform="matrix(0,-1,1,0,17.4305,308.497)"
font-family="Ubuntu" font-size="18.9557" font-weight="400" font-style="normal" 
>
<text fill="#000000" fill-opacity="1" stroke="none" xml:space="preserve" x="0" y="19" font-family="Ubuntu" font-size="18.9557" font-weight="400" font-style="normal" 
 >1 / frame time (=fps)</text>
</g>

<g fill="#ffffff" fill-opacity="1" stroke="#000000" stroke-opacity="1" stroke-width="1" stroke-linecap="square" stroke-linejoin="bevel" transform="matrix(0,-1,1,0,17.4305,308.497)"
font-family="Ubuntu" font-size="18.9557" font-weight="400" font-style="normal" 
>
</g>

<g fill="#ffffff" fill-opacity="1" stroke="#000000" stroke-opacity="1" stroke-width="1" stroke-linecap="square" stroke-linejoin="bevel" transform="matrix(1,0,0,1,686.156,318.406)"
font-family="Ubuntu" font-size="18.9557" font-weight="400" font-style="normal" 
>
</g>

<g fill="#ffffff" fill-opacity="1" stroke="#000000" stroke-opacity="1" stroke-width="1" stroke-linecap="square" stroke-linejoin="bevel" transform="matrix(1,0,0,1,474.74,449.84)"
font-family="Ubuntu" font-size="18.9557" font-weight="400" font-style="normal" 
>
</g>

<g fill="#ffffff" fill-opacity="1" stroke="#000000" stroke-opacity="1" stroke-width="1" stroke-linecap="square" stroke-linejoin="bevel" transform="matrix(1,0,0,1,474.74,449.84)"
font-family="Ubuntu" font-size="18.9557" font-weight="400" font-style="normal" 
>
<text fill="#000000" fill-opacity="1" stroke="none" xml:space="preserve" x="0" y="19" font-family="Ubuntu" font-size="18.9557" font-weight="400" font-style="normal" 
 >frame number</text>
</g>

<g fill="#ffffff" fill-opacity="1" stroke="#000000" stroke-opacity="1" stroke-width="1" stroke-linecap="square" stroke-linejoin="bevel" transform="matrix(1,0,0,1,474.74,449.84)"
font-family="Ubuntu" font-size="18.9557" font-weight="400" font-style="normal" 
>
</g>

<g fill="#ffffff" fill-opacity="1" stroke="#000000" stroke-opacity="1" stroke-width="1" stroke-linecap="square" stroke-linejoin="bevel" transform="matrix(1,0,0,1,686.156,318.406)"
font-family="Ubuntu" font-size="18.9557" font-weight="400" font-style="normal" 
>
</g>

<g fill="#ffffff" fill-opacity="1" stroke="#000000" stroke-opacity="1" stroke-width="1" stroke-linecap="square" stroke-linejoin="bevel" transform="matrix(1,0,0,1,686.156,318.406)"
font-family="Ubuntu" font-size="18.9557" font-weight="400" font-style="normal" 
>
</g>

<g fill="#ffffff" fill-opacity="1" stroke="#000000" stroke-opacity="1" stroke-width="1" stroke-linecap="square" stroke-linejoin="bevel" transform="matrix(1,0,0,1,686.156,318.406)"
font-family="Ubuntu" font-size="18.9557" font-weight="400" font-style="normal" 
>
</g>

<g fill="#ffffff" fill-opacity="1" stroke="#a0a0a4" stroke-opacity="1" stroke-dasharray="4,2" stroke-dashoffset="0" stroke-width="1" stroke-linecap="square" stroke-linejoin="bevel" transform="matrix(1,0,0,1,686.156,318.406)"
font-family="Ubuntu" font-size="18.9557" font-weight="400" font-style="normal" 
>
<polyline fill="none" vector-effect="none" points="-615.725,103.434 -615.725,-297.252 " />
<polyline fill="none" vector-effect="none" points="-457.993,103.434 -457.993,-297.252 " />
<polyline fill="none" vector-effect="none" points="-300.261,103.434 -300.261,-297.252 " />
<polyline fill="none" vector-effect="none" points="-142.529,103.434 -142.529,-297.252 " />
<polyline fill="none" vector-effect="none" points="15.203,103.434 15.203,-297.252 " />
<polyline fill="none" vector-effect="none" points="172.935,103.434 172.935,-297.252 " />
</g>

<g fill="#ffffff" fill-opacity="1" stroke="#000000" stroke-opacity="1" stroke-width="1" stroke-linecap="square" stroke-linejoin="bevel" transform="matrix(1,0,0,1,686.156,318.406)"
font-family="Ubuntu" font-size="18.9557" font-weight="400" font-style="normal" 
>
</g>

<g fill="#ffffff" fill-opacity="1" stroke="#a0a0a4" stroke-opacity="1" stroke-dasharray="4,2" stroke-dashoffset="0" stroke-width="1" stroke-linecap="square" stroke-linejoin="bevel" transform="matrix(1,0,0,1,686.156,318.406)"
font-family="Ubuntu" font-size="18.9557" font-weight="400" font-style="normal" 
>
<polyline fill="none" vector-effect="none" points="-615.725,98.9148 314.894,98.9148 " />
<polyline fill="none" vector-effect="none" points="-615.725,48.7035 314.894,48.7035 " />
<polyline fill="none" vector-effect="none" points="-615.725,-1.50772 314.894,-1.50772 " />
<polyline fill="none" vector-effect="none" points="-615.725,-51.719 314.894,-51.719 " />
<polyline fill="none" vector-effect="none" points="-615.725,-101.93 314.894,-101.93 " />
<polyline fill="none" vector-effect="none" points="-615.725,-152.141 314.894,-152.141 " />
<polyline fill="none" vector-effect="none" points="-615.725,-202.353 314.894,-202.353 " />
<polyline fill="none" vector-effect="none" points="-615.725,-252.564 314.894,-252.564 " />
</g>

<g fill="#ffffff" fill-opacity="1" stroke="#000000" stroke-opacity="1" stroke-width="1" stroke-linecap="square" stroke-linejoin="bevel" transform="matrix(1,0,0,1,686.156,318.406)"
font-family="Ubuntu" font-size="18.9557" font-weight="400" font-style="normal" 
>
</g>

<g fill="none" stroke="#000000" stroke-opacity="1" stroke-width="1" stroke-linecap="square" stroke-linejoin="bevel" transform="matrix(1,0,0,1,686.156,318.406)"
font-family="Ubuntu" font-size="18.9557" font-weight="400" font-style="normal" 
>
<path vector-effect="non-scaling-stroke" fill-rule="evenodd" d="M-615.725,-297.252 L314.894,-297.252 L314.894,103.434 L-615.725,103.434 L-615.725,-297.252"/>
<polyline fill="none" vector-effect="non-scaling-stroke" points="-615.725,103.434 -615.725,94.1501 " />
<polyline fill="none" vector-effect="non-scaling-stroke" points="-615.725,-297.252 -615.725,-287.968 " />
<polyline fill="none" vector-effect="non-scaling-stroke" points="-457.993,103.434 -457.993,94.1501 " />
<polyline fill="none" vector-effect="non-scaling-stroke" points="-457.993,-297.252 -457.993,-287.968 " />
<polyline fill="none" vector-effect="non-scaling-stroke" points="-300.261,103.434 -300.261,94.1501 " />
<polyline fill="none" vector-effect="non-scaling-stroke" points="-300.261,-297.252 -300.261,-287.968 " />
<polyline fill="none" vector-effect="non-scaling-stroke" points="-142.529,103.434 -142.529,94.1501 " />
<polyline fill="none" vector-effect="non-scaling-stroke" points="-142.529,-297.252 -142.529,-287.968 " />
<polyline fill="none" vector-effect="non-scaling-stroke" points="15.203,103.434 15.203,94.1501 " />
<polyline fill="none" vector-effect="non-scaling-stroke" points="15.203,-297.252 15.203,-287.968 " />
<polyline fill="none" vector-effect="non-scaling-stroke" points="172.935,103.434 172.935,94.1501 " />
<polyline fill="none" vector-effect="non-scaling-stroke" points="172.935,-297.252 172.935,-287.968 " />
<polyline fill="none" vector-effect="non-scaling-stroke" points="-615.725,98.9148 -606.442,98.9148 " />
<polyline fill="none" vector-effect="non-scaling-stroke" points="314.894,98.9148 305.61,98.9148 " />
<polyline fill="none" vector-effect="non-scaling-stroke" points="-615.725,48.7035 -606.442,48.7035 " />
<polyline fill="none" vector-effect="non-scaling-stroke" points="314.894,48.7035 305.61,48.7035 " />
<polyline fill="none" vector-effect="non-scaling-stroke" points="-615.725,-1.50772 -606.442,-1.50772 " />
<polyline fill="none" vector-effect="non-scaling-stroke" points="314.894,-1.50772 305.61,-1.50772 " />
<polyline fill="none" vector-effect="non-scaling-stroke" points="-615.725,-51.719 -606.442,-51.719 " />
<polyline fill="none" vector-effect="non-scaling-stroke" points="314.894,-51.719 305.61,-51.719 " />
<polyline fill="none" vector-effect="non-scaling-stroke" points="-615.725,-101.93 -606.442,-101.93 " />
<polyline fill="none" vector-effect="non-scaling-stroke" points="314.894,-101.93 305.61,-101.93 " />
<polyline fill="none" vector-effect="non-scaling-stroke" points="-615.725,-152.141 -606.442,-152.141 " />
<polyline fill="none" vector-effect="non-scaling-stroke" points="314.894,-152.141 305.61,-152.141 " />
<polyline fill="none" vector-effect="non-scaling-stroke" points="-615.725,-202.353 -606.442,-202.353 " />
<polyline fill="none" vector-effect="non-scaling-stroke" points="314.894,-202.353 305.61,-202.353 " />
<polyline fill="none" vector-effect="non-scaling-stroke" points="-615.725,-252.564 -606.442,-252.564 " />
<polyline fill="none" vector-effect="non-scaling-stroke" points="314.894,-252.564 305.61,-252.564 " />
<polyline fill="none" vector-effect="non-scaling-stroke" points="-584.179,103.434 -584.179,98.7919 " />
<polyline fill="none" vector-effect="non-scaling-stroke" points="-584.179,-297.252 -584.179,-292.61 " />
<polyline fill="none" vector-effect="non-scaling-stroke" points="-552.632,103.434 -552.632,98.7919 " />
<polyline fill="none" vector-effect="non-scaling-stroke" points="-552.632,-297.252 -552.632,-292.61 " />
<polyline fill="none" vector-effect="non-scaling-stroke" points="-521.086,103.434 -521.086,98.7919 " />
<polyline fill="none" vector-effect="non-scaling-stroke" points="-521.086,-297.252 -521.086,-292.61 " />
<polyline fill="none" vector-effect="non-scaling-stroke" points="-489.54,103.434 -489.54,98.7919 " />
<polyline fill="none" vector-effect="non-scaling-stroke" points="-489.54,-297.252 -489.54,-292.61 " />
<polyline fill="none" vector-effect="non-scaling-stroke" points="-426.447,103.434 -426.447,98.7919 " />
<polyline fill="none" vector-effect="non-scaling-stroke" points="-426.447,-297.252 -426.447,-292.61 " />
<polyline fill="none" vector-effect="non-scaling-stroke" points="-394.9,103.434 -394.9,98.7919 " />
<polyline fill="none" vector-effect="non-scaling-stroke" points="-394.9,-297.252 -394.9,-292.61 " />
<polyline fill="none" vector-effect="non-scaling-stroke" points="-363.354,103.434 -363.354,98.7919 " />
<polyline fill="none" vector-effect="non-scaling-stroke" points="-363.354,-297.252 -363.354,-292.61 " />
<polyline fill="none" vector-effect="non-scaling-stroke" points="-331.808,103.434 -331.808,98.7919 " />
<polyline fill="none" vector-effect="non-scaling-stroke" points="-331.808,-297.252 -331.808,-292.61 " />
<polyline fill="none" vector-effect="non-scaling-stroke" points="-268.715,103.434 -268.715,98.7919 " />
<polyline fill="none" vector-effect="non-scaling-stroke" points="-268.715,-297.252 -268.715,-292.61 " />
<polyline fill="none" vector-effect="non-scaling-stroke" points="-237.168,103.434 -237.168,98.7919 " />
<polyline fill="none" vector-effect="non-scaling-stroke" points="-237.168,-297.252 -237.168,-292.61 " />
<polyline fill="none" vector-effect="non-scaling-stroke" points="-205.622,103.434 -205.622,98.7919 " />
<polyline fill="none" vector-effect="non-scaling-stroke" points="-205.622,-297.252 -205.622,-292.61 " />
<polyline fill="none" vector-effect="non-scaling-stroke" points="-174.075,103.434 -174.075,98.7919 " />
<polyline fill="none" vector-effect="non-scaling-stroke" points="-174.075,-297.252 -174.075,-292.61 " />
<polyline fill="none" vector-effect="non-scaling-stroke" points="-110.983,103.434 -110.983,98.7919 " />
<polyline fill="none" vector-effect="non-scaling-stroke" points="-110.983,-297.252 -110.983,-292.61 " />
<polyline fill="none" vector-effect="non-scaling-stroke" points="-79.4362,103.434 -79.4362,98.7919 " />
<polyline fill="none" vector-effect="non-scaling-stroke" points="-79.4362,-297.252 -79.4362,-292.61 " />
<polyline fill="none" vector-effect="non-scaling-stroke" points="-47.8898,103.434 -47.8898,98.7919 " />
<polyline fill="none" vector-effect="non-scaling-stroke" points="-47.8898,-297.252 -47.8898,-292.61 " />
<polyline fill="none" vector-effect="non-scaling-stroke" points="-16.3434,103.434 -16.3434,98.7919 " />
<polyline fill="none" vector-effect="non-scaling-stroke" points="-16.3434,-297.252 -16.3434,-292.61 " />
<polyline fill="none" vector-effect="non-scaling-stroke" points="46.7495,103.434 46.7495,98.7919 " />
<polyline fill="none" vector-effect="non-scaling-stroke" points="46.7495,-297.252 46.7495,-292.61 " />
<polyline fill="none" vector-effect="non-scaling-stroke" points="78.2959,103.434 78.2959,98.7919 " />
<polyline fill="none" vector-effect="non-scaling-stroke" points="78.2959,-297.252 78.2959,-292.61 " />
<polyline fill="none" vector-effect="non-scaling-stroke" points="109.842,103.434 109.842,98.7919 " />
<polyline fill="none" vector-effect="non-scaling-stroke" points="109.842,-297.252 109.842,-292.61 " />
<polyline fill="none" vector-effect="non-scaling-stroke" points="141.389,103.434 141.389,98.7919 " />
<polyline fill="none" vector-effect="non-scaling-stroke" points="141.389,-297.252 141.389,-292.61 " />
<polyline fill="none" vector-effect="non-scaling-stroke" points="204.482,103.434 204.482,98.7919 " />
<polyline fill="none" vector-effect="non-scaling-stroke" points="204.482,-297.252 204.482,-292.61 " />
<polyline fill="none" vector-effect="non-scaling-stroke" points="236.028,103.434 236.028,98.7919 " />
<polyline fill="none" vector-effect="non-scaling-stroke" points="236.028,-297.252 236.028,-292.61 " />
<polyline fill="none" vector-effect="non-scaling-stroke" points="267.574,103.434 267.574,98.7919 " />
<polyline fill="none" vector-effect="non-scaling-stroke" points="267.574,-297.252 267.574,-292.61 " />
<polyline fill="none" vector-effect="non-scaling-stroke" points="299.121,103.434 299.121,98.7919 " />
<polyline fill="none" vector-effect="non-scaling-stroke" points="299.121,-297.252 299.121,-292.61 " />
<polyline fill="none" vector-effect="non-scaling-stroke" points="-615.725,88.8725 -611.083,88.8725 " />
<polyline fill="none" vector-effect="non-scaling-stroke" points="314.894,88.8725 310.252,88.8725 " />
<polyline fill="none" vector-effect="non-scaling-stroke" points="-615.725,78.8303 -611.083,78.8303 " />
<polyline fill="none" vector-effect="non-scaling-stroke" points="314.894,78.8303 310.252,78.8303 " />
<polyline fill="none" vector-effect="non-scaling-stroke" points="-615.725,68.788 -611.083,68.788 " />
<polyline fill="none" vector-effect="non-scaling-stroke" points="314.894,68.788 310.252,68.788 " />
<polyline fill="none" vector-effect="non-scaling-stroke" points="-615.725,58.7458 -611.083,58.7458 " />
<polyline fill="none" vector-effect="non-scaling-stroke" points="314.894,58.7458 310.252,58.7458 " />
<polyline fill="none" vector-effect="non-scaling-stroke" points="-615.725,38.6613 -611.083,38.6613 " />
<polyline fill="none" vector-effect="non-scaling-stroke" points="314.894,38.6613 310.252,38.6613 " />
<polyline fill="none" vector-effect="non-scaling-stroke" points="-615.725,28.619 -611.083,28.619 " />
<polyline fill="none" vector-effect="non-scaling-stroke" points="314.894,28.619 310.252,28.619 " />
<polyline fill="none" vector-effect="non-scaling-stroke" points="-615.725,18.5768 -611.083,18.5768 " />
<polyline fill="none" vector-effect="non-scaling-stroke" points="314.894,18.5768 310.252,18.5768 " />
<polyline fill="none" vector-effect="non-scaling-stroke" points="-615.725,8.53453 -611.083,8.53453 " />
<polyline fill="none" vector-effect="non-scaling-stroke" points="314.894,8.53453 310.252,8.53453 " />
<polyline fill="none" vector-effect="non-scaling-stroke" points="-615.725,-11.55 -611.083,-11.55 " />
<polyline fill="none" vector-effect="non-scaling-stroke" points="314.894,-11.55 310.252,-11.55 " />
<polyline fill="none" vector-effect="non-scaling-stroke" points="-615.725,-21.5922 -611.083,-21.5922 " />
<polyline fill="none" vector-effect="non-scaling-stroke" points="314.894,-21.5922 310.252,-21.5922 " />
<polyline fill="none" vector-effect="non-scaling-stroke" points="-615.725,-31.6345 -611.083,-31.6345 " />
<polyline fill="none" vector-effect="non-scaling-stroke" points="314.894,-31.6345 310.252,-31.6345 " />
<polyline fill="none" vector-effect="non-scaling-stroke" points="-615.725,-41.6767 -611.083,-41.6767 " />
<polyline fill="none" vector-effect="non-scaling-stroke" points="314.894,-41.6767 310.252,-41.6767 " />
<polyline fill="none" vector-effect="non-scaling-stroke" points="-615.725,-61.7612 -611.083,-61.7612 " />
<polyline fill="none" vector-effect="non-scaling-stroke" points="314.894,-61.7612 310.252,-61.7612 " />
<polyline fill="none" vector-effect="non-scaling-stroke" points="-615.725,-71.8035 -611.083,-71.8035 " />
<polyline fill="none" vector-effect="non-scaling-stroke" points="314.894,-71.8035 310.252,-71.8035 " />
<polyline fill="none" vector-effect="non-scaling-stroke" points="-615.725,-81.8457 -611.083,-81.8457 " />
<polyline fill="none" vector-effect="non-scaling-stroke" points="314.894,-81.8457 310.252,-81.8457 " />
<polyline fill="none" vector-effect="non-scaling-stroke" points="-615.725,-91.888 -611.083,-91.888 " />
<polyline fill="none" vector-effect="non-scaling-stroke" points="314.894,-91.888 310.252,-91.888 " />
<polyline fill="none" vector-effect="non-scaling-stroke" points="-615.725,-111.972 -611.083,-111.972 " />
<polyline fill="none" vector-effect="non-scaling-stroke" points="314.894,-111.972 310.252,-111.972 " />
<polyline fill="none" vector-effect="non-scaling-stroke" points="-615.725,-122.015 -611.083,-122.015 " />
<polyline fill="none" vector-effect="non-scaling-stroke" points="314.894,-122.015 310.252,-122.015 " />
<polyline fill="none" vector-effect="non-scaling-stroke" points="-615.725,-132.057 -611.083,-132.057 " />
<polyline fill="none" vector-effect="non-scaling-stroke" points="314.894,-132.057 310.252,-132.057 " />
<polyline fill="none" vector-effect="non-scaling-stroke" points="-615.725,-142.099 -611.083,-142.099 " />
<polyline fill="none" vector-effect="non-scaling-stroke" points="314.894,-142.099 310.252,-142.099 " />
<polyline fill="none" vector-effect="non-scaling-stroke" points="-615.725,-162.184 -611.083,-162.184 " />
<polyline fill="none" vector-effect="non-scaling-stroke" points="314.894,-162.184 310.252,-162.184 " />
<polyline fill="none" vector-effect="non-scaling-stroke" points="-615.725,-172.226 -611.083,-172.226 " />
<polyline fill="none" vector-effect="non-scaling-stroke" points="314.894,-172.226 310.252,-172.226 " />
<polyline fill="none" vector-effect="non-scaling-stroke" points="-615.725,-182.268 -611.083,-182.268 " />
<polyline fill="none" vector-effect="non-scaling-stroke" points="314.894,-182.268 310.252,-182.268 " />
<polyline fill="none" vector-effect="non-scaling-stroke" points="-615.725,-192.31 -611.083,-192.31 " />
<polyline fill="none" vector-effect="non-scaling-stroke" points="314.894,-192.31 310.252,-192.31 " />
<polyline fill="none" vector-effect="non-scaling-stroke" points="-615.725,-212.395 -611.083,-212.395 " />
<polyline fill="none" vector-effect="non-scaling-stroke" points="314.894,-212.395 310.252,-212.395 " />
<polyline fill="none" vector-effect="non-scaling-stroke" points="-615.725,-222.437 -611.083,-222.437 " />
<polyline fill="none" vector-effect="non-scaling-stroke" points="314.894,-222.437 310.252,-222.437 " />
<polyline fill="none" vector-effect="non-scaling-stroke" points="-615.725,-232.479 -611.083,-232.479 " />
<polyline fill="none" vector-effect="non-scaling-stroke" points="314.894,-232.479 310.252,-232.479 " />
<polyline fill="none" vector-effect="non-scaling-stroke" points="-615.725,-242.522 -611.083,-242.522 " />
<polyline fill="none" vector-effect="non-scaling-stroke" points="314.894,-242.522 310.252,-242.522 " />
<polyline fill="none" vector-effect="non-scaling-stroke" points="-615.725,-262.606 -611.083,-262.606 " />
<polyline fill="none" vector-effect="non-scaling-stroke" points="314.894,-262.606 310.252,-262.606 " />
<polyline fill="none" vector-effect="non-scaling-stroke" points="-615.725,-272.648 -611.083,-272.648 " />
<polyline fill="none" vector-effect="non-scaling-stroke" points="314.894,-272.648 310.252,-272.648 " />
<polyline fill="none" vector-effect="non-scaling-stroke" points="-615.725,-282.691 -611.083,-282.691 " />
<polyline fill="none" vector-effect="non-scaling-stroke" points="314.894,-282.691 310.252,-282.691 " />
<polyline fill="none" vector-effect="non-scaling-stroke" points="-615.725,-292.733 -611.083,-292.733 " />
<polyline fill="none" vector-effect="non-scaling-stroke" points="314.894,-292.733 310.252,-292.733 " />
</g>

<g fill="#ffffff" fill-opacity="1" stroke="#000000" stroke-opacity="1" stroke-width="1" stroke-linecap="square" stroke-linejoin="bevel" transform="matrix(1,0,0,1,686.156,318.406)"
font-family="Ubuntu" font-size="18.9557" font-weight="400" font-style="normal" 
>
<text fill="#000000" fill-opacity="1" stroke="none" xml:space="preserve" x="-621.219" y="127.422" font-family="Ubuntu" font-size="18.9557" font-weight="400" font-style="normal" 
 >0</text>
<text fill="#000000" fill-opacity="1" stroke="none" xml:space="preserve" x="-474.484" y="127.422" font-family="Ubuntu" font-size="18.9557" font-weight="400" font-style="normal" 
 >100</text>
<text fill="#000000" fill-opacity="1" stroke="none" xml:space="preserve" x="-316.75" y="127.422" font-family="Ubuntu" font-size="18.9557" font-weight="400" font-style="normal" 
 >200</text>
<text fill="#000000" fill-opacity="1" stroke="none" xml:space="preserve" x="-159.016" y="127.422" font-family="Ubuntu" font-size="18.9557" font-weight="400" font-style="normal" 
 >300</text>
<text fill="#000000" fill-opacity="1" stroke="none" xml:space="preserve" x="-1.29688" y="127.422" font-family="Ubuntu" font-size="18.9557" font-weight="400" font-style="normal" 
 >400</text>
<text fill="#000000" fill-opacity="1" stroke="none" xml:space="preserve" x="156.422" y="127.422" font-family="Ubuntu" font-size="18.9557" font-weight="400" font-style="normal" 
 >500</text>
</g>

<g fill="#ffffff" fill-opacity="1" stroke="#000000" stroke-opacity="1" stroke-width="1" stroke-linecap="square" stroke-linejoin="bevel" transform="matrix(1,0,0,1,686.156,318.406)"
font-family="Ubuntu" font-size="18.9557" font-weight="400" font-style="normal" 
>
<text fill="#000000" fill-opacity="1" stroke="none" xml:space="preserve" x="-635.719" y="105.906" font-family="Ubuntu" font-size="18.9557" font-weight="400" font-style="normal" 
 >5</text>
<text fill="#000000" fill-opacity="1" stroke="none" xml:space="preserve" x="-646.719" y="55.7031" font-family="Ubuntu" font-size="18.9557" font-weight="400" font-style="normal" 
 >10</text>
<text fill="#000000" fill-opacity="1" stroke="none" xml:space="preserve" x="-646.719" y="5.5" font-family="Ubuntu" font-size="18.9557" font-weight="400" font-style="normal" 
 >15</text>
<text fill="#000000" fill-opacity="1" stroke="none" xml:space="preserve" x="-646.719" y="-44.7188" font-family="Ubuntu" font-size="18.9557" font-weight="400" font-style="normal" 
 >20</text>
<text fill="#000000" fill-opacity="1" stroke="none" xml:space="preserve" x="-646.719" y="-94.9219" font-family="Ubuntu" font-size="18.9557" font-weight="400" font-style="normal" 
 >25</text>
<text fill="#000000" fill-opacity="1" stroke="none" xml:space="preserve" x="-646.719" y="-145.141" font-family="Ubuntu" font-size="18.9557" font-weight="400" font-style="normal" 
 >30</text>
<text fill="#000000" fill-opacity="1" stroke="none" xml:space="preserve" x="-646.719" y="-195.344" font-family="Ubuntu" font-size="18.9557" font-weight="400" font-style="normal" 
 >35</text>
<text fill="#000000" fill-opacity="1" stroke="none" xml:space="preserve" x="-646.719" y="-245.562" font-family="Ubuntu" font-size="18.9557" font-weight="400" font-style="normal" 
 >40</text>
</g>

<g fill="#ffffff" fill-opacity="1" stroke="#000000" stroke-opacity="1" stroke-width="1" stroke-linecap="square" stroke-linejoin="bevel" transform="matrix(1,0,0,1,686.156,318.406)"
font-family="Ubuntu" font-size="18.9557" font-weight="400" font-style="normal" 
>
</g>

<g fill="#ffffff" fill-opacity="1" stroke="#000000" stroke-opacity="1" stroke-width="1" stroke-linecap="square" stroke-linejoin="bevel" transform="matrix(1,0,0,1,686.156,318.406)"
font-family="Ubuntu" font-size="12.5" font-weight="400" font-style="normal" 
>
</g>

<g fill="none" stroke="#000000" stroke-opacity="1" stroke-width="1" stroke-linecap="square" stroke-linejoin="bevel" transform="matrix(1,0,0,1,0,0)"
font-family="Ubuntu" font-size="12.5" font-weight="400" font-style="normal" 
>
</g>

<g fill="none" stroke="#000000" stroke-opacity="1" stroke-width="1" stroke-linecap="square" stroke-linejoin="bevel" transform="matrix(1,0,0,1,686.156,318.406)"
font-family="Ubuntu" font-size="12.5" font-weight="400" font-style="normal" 
>
</g>

<g fill="none" stroke="#000000" stroke-opacity="1" stroke-width="1" stroke-linecap="square" stroke-linejoin="bevel" transform="matrix(1,0,0,1,686.156,318.406)"
font-family="Ubuntu" font-size="12.5" font-weight="400" font-style="normal" 
>
</g>

<g fill="none" stroke="#000000" stroke-opacity="1" stroke-width="1" stroke-linecap="square" stroke-linejoin="bevel" transform="matrix(1,0,0,1,70.4305,21.154)"
font-family="Ubuntu" font-size="12.5" font-weight="400" font-style="normal" 
>
</g>

<g fill="none" stroke="#0000ff" stroke-opacity="1" stroke-width="1" stroke-linecap="square" stroke-linejoin="bevel" transform="matrix(1,0,0,1,70.4305,21.154)"
font-family="Ubuntu" font-size="12.5" font-weight="400" font-style="normal" 
>
<polyline fill="none" vector-effect="non-scaling-stroke" points="0,390.169 15.7563,390.169 31.5125,390.169 47.2688,390.169 63.025,385.161 78.7813,380.152 94.5376,370.135 110.294,335.075 126.05,254.937 141.806,119.705 157.563,24.5421 173.319,39.5679 189.075,39.5679 204.831,144.748 220.588,159.774 236.344,164.783 252.1,194.834 267.856,214.869 283.613,219.877 299.369,214.869 315.125,179.809 330.881,179.809 346.638,189.826 362.394,199.843 378.15,194.834 393.906,119.705 409.663,174.8 425.419,99.671 441.175,154.766 456.932,184.817 472.688,164.783 488.444,159.774 504.2,154.766 519.957,104.68 535.713,139.74 551.469,179.809 567.225,129.723 582.982,124.714 598.738,164.783 614.494,164.783 630.25,134.731 646.007,119.705 661.763,144.748 677.519,169.791 693.275,129.723 709.032,129.723 724.788,129.723 740.544,129.723 756.3,134.731 772.057,129.723 787.813,109.688 803.569,104.68 819.325,89.6538 835.082,119.705 850.838,99.671 866.594,64.6109 882.351,24.5421 898.107,9.51633 913.863,19.5335 929.619,139.74 " />
</g>

<g fill="none" stroke="#000000" stroke-opacity="1" stroke-width="1" stroke-linecap="square" stroke-linejoin="bevel" transform="matrix(1,0,0,1,70.4305,21.154)"
font-family="Ubuntu" font-size="12.5" font-weight="400" font-style="normal" 
>
</g>

<g fill="none" stroke="#008000" stroke-opacity="1" stroke-width="1" stroke-linecap="square" stroke-linejoin="bevel" transform="matrix(1,0,0,1,70.4305,21.154)"
font-family="Ubuntu" font-size="12.5" font-weight="400" font-style="normal" 
>
<polyline fill="none" vector-effect="non-scaling-stroke" points="0,385.161 15.7563,385.161 31.5125,385.161 47.2688,385.161 63.025,385.161 78.7813,385.161 94.5376,385.161 110.294,385.161 126.05,385.161 141.806,385.161 157.563,385.161 173.319,385.161 189.075,385.161 204.831,385.161 220.588,385.161 236.344,385.161 252.1,385.161 267.856,385.161 283.613,385.161 299.369,385.161 315.125,385.161 330.881,385.161 346.638,385.161 362.394,385.161 378.15,385.161 393.906,385.161 409.663,385.161 425.419,385.161 441.175,385.161 456.932,385.161 472.688,385.161 488.444,385.161 504.2,385.161 519.957,385.161 535.713,385.161 551.469,385.161 567.225,385.161 582.982,385.161 598.738,385.161 614.494,385.161 630.25,385.161 646.007,385.161 661.763,385.161 677.519,385.161 693.275,385.161 709.032,385.161 724.788,385.161 740.544,385.161 756.3,385.161 772.057,385.161 787.813,385.161 803.569,385.161 819.325,385.161 835.082,385.161 850.838,385.161 866.594,385.161 882.351,385.161 898.107,385.161 913.863,385.161 929.619,385.161 " />
</g>

<g fill="none" stroke="#000000" stroke-opacity="1" stroke-width="1" stroke-linecap="square" stroke-linejoin="bevel" transform="matrix(1,0,0,1,70.4305,21.154)"
font-family="Ubuntu" font-size="12.5" font-weight="400" font-style="normal" 
>
</g>

<g fill="none" stroke="#000000" stroke-opacity="1" stroke-width="1" stroke-linecap="square" stroke-linejoin="bevel" transform="matrix(1,0,0,1,686.156,318.406)"
font-family="Ubuntu" font-size="12.5" font-weight="400" font-style="normal" 
>
</g>

<g fill="none" stroke="#000000" stroke-opacity="1" stroke-width="1" stroke-linecap="square" stroke-linejoin="bevel" transform="matrix(1,0,0,1,686.156,318.406)"
font-family="Ubuntu" font-size="12.5" font-weight="400" font-style="normal" 
>
</g>

<g fill="none" stroke="#000000" stroke-opacity="1" stroke-width="1" stroke-linecap="square" stroke-linejoin="bevel" transform="matrix(1,0,0,1,0,0)"
font-family="Ubuntu" font-size="12.5" font-weight="400" font-style="normal" 
>
</g>

<g fill="none" stroke="#000000" stroke-opacity="1" stroke-width="1" stroke-linecap="square" stroke-linejoin="bevel" transform="matrix(1,0,0,1,0,0)"
font-family="Ubuntu" font-size="12.5" font-weight="400" font-style="normal" 
>
</g>

<g fill="none" stroke="#000000" stroke-opacity="1" stroke-width="1" stroke-linecap="square" stroke-linejoin="bevel" transform="matrix(1,0,0,1,686.156,318.406)"
font-family="Ubuntu" font-size="12.5" font-weight="400" font-style="normal" 
>
</g>

<g fill="none" stroke="#000000" stroke-opacity="1" stroke-width="1" stroke-linecap="square" stroke-linejoin="bevel" transform="matrix(1,0,0,1,0,0)"
font-family="Ubuntu" font-size="12.5" font-weight="400" font-style="normal" 
>
</g>

<g fill="none" stroke="#000000" stroke-opacity="1" stroke-width="1" stroke-linecap="square" stroke-linejoin="bevel" transform="matrix(1,0,0,1,0,0)"
font-family="Ubuntu" font-size="12.5" font-weight="400" font-style="normal" 
>
</g>
</g>
</svg>
